<?xml version="1.0" encoding="UTF-8"?>
<svg viewBox="0 0 331 344" version="1.1" xmlns="http://www.w3.org/2000/svg" xmlns:xlink="http://www.w3.org/1999/xlink">
    <!-- Generator: Sketch 52.5 (67469) - http://www.bohemiancoding.com/sketch -->
    <title>logo</title>
    <desc>Created with Sketch.</desc>
    <g id="Page-1" stroke="none" stroke-width="1" fill="none" fill-rule="evenodd">
        <g id="Logo">
            <path d="M250.64,41 C270.304004,42.1610882 288.156044,52.8690755 298.438662,69.6705316 C308.721281,86.4719876 310.13355,107.241239 302.22,125.28 C301.7,126.45 301.15,127.61 300.56,128.75 C319.366788,139.878564 330.669003,160.322066 330.091728,182.167133 C329.514454,204.0122 317.148293,223.830245 297.78,233.95 C297.532922,261.641745 278.432026,285.595234 251.49,292 C250.416906,312.172645 238.230063,330.080529 219.858344,338.480949 C201.486625,346.881369 179.969731,344.38443 164.01,332 L160.44,329.23 L160.44,19.93 L162.73,17.32 C175.471771,2.76363972 195.386563,-3.2731374 214.066047,1.75848783 C232.74553,6.79011305 246.933663,22.0130721 250.64,41" id="Path" fill="#C9C9C9"></path>
            <path d="M169.67,59.35 L169.67,324.76 C183.967722,335.845903 203.509545,337.305349 219.295336,328.466179 C235.081126,319.627008 244.049498,302.203429 242.07,284.22 C268.377478,281.884446 288.549541,259.850947 288.56,233.44 C288.56,231.98 288.47,230.44 288.32,228.72 L288.26,228.14 C308.113863,220.465385 321.113357,201.267433 320.868328,179.983271 C320.623298,158.699109 307.185283,139.805514 287.16,132.59 C299.201053,117.242299 301.432492,96.3705182 292.908203,78.8241398 C284.383914,61.2777614 266.597395,50.1309998 247.09,50.11 C245.54,50.11 243.96,50.19 242.34,50.34 C242.194471,33.1294454 231.430913,17.7984963 215.292982,11.815892 C199.155051,5.83328766 180.999054,10.4432677 169.67,23.4 L169.67,59.4 L169.67,59.35 Z" id="Path" fill="#ED297A"></path>
            <path d="M311.36,180.57 C311.365994,162.074603 299.120439,145.812103 281.343516,140.707126 C263.566594,135.602149 244.558255,142.889506 234.75,158.57 L226.75,153.57 C237.365806,136.609776 256.918463,127.423938 276.75,130.08 C284.339746,122.340056 288.572378,111.920165 288.53,101.08 C288.53,78.1877971 269.972203,59.63 247.08,59.63 C245.586971,59.6271616 244.094853,59.7039372 242.61,59.86 L241.27,60.02 C237.069339,78.1206974 221.351105,91.2246721 202.79,92.1 L202.38,82.61 C216.541344,82.0019927 228.615323,72.150244 232.052357,58.3988753 C235.48939,44.6475065 229.470406,30.2735808 217.260427,23.0742928 C205.050447,15.8750049 189.55921,17.5660037 179.19,27.23 L179.19,59.35 L169.67,59.35 L169.67,23.4 C180.999054,10.4432677 199.155051,5.83328766 215.292982,11.815892 C231.430913,17.7984963 242.194471,33.1294454 242.34,50.34 C243.96,50.19 245.54,50.11 247.09,50.11 C266.597395,50.1309998 284.383914,61.2777614 292.908203,78.8241398 C301.432492,96.3705182 299.201053,117.242299 287.16,132.59 C307.185283,139.805514 320.623298,158.699109 320.868328,179.983271 C321.113357,201.267433 308.113863,220.465385 288.26,228.14 L288.32,228.72 C288.47,230.4 288.56,231.98 288.56,233.44 C288.549541,259.850947 268.377478,281.884446 242.07,284.22 C244.059426,302.206931 235.092757,319.638427 219.30298,328.47983 C203.513202,337.321234 183.96552,335.856198 169.67,324.76 L169.67,292.46 L179.19,292.46 L179.19,319.77 C190.187352,326.24397 203.809618,326.332461 214.890148,320.00191 C225.970679,313.671359 232.812253,301.891425 232.82,289.13 C232.824107,287.712866 232.740615,286.296832 232.57,284.89 L232.48,284.16 C219.501568,282.845584 207.520172,276.607958 199,266.73 L206.18,260.52 C217.502416,273.612717 235.767179,278.293513 251.991106,272.260226 C268.215032,266.226939 278.983405,250.749421 279,233.44 C279,232.44 279,231.57 278.93,230.74 C251.386749,235.675319 225.010632,217.49628 219.82,190 L229.16,188.25 C233.129854,209.273133 252.444519,223.823215 273.746894,221.838103 C295.049269,219.852991 311.342948,201.984662 311.36,180.59" id="Path" fill="#FFFFFF"></path>
            <path d="M79.47,41.29 C59.8066341,42.447746 41.9539463,53.1534482 31.6708751,69.95365 C21.3878039,86.7538518 19.9756696,107.522492 27.89,125.56 C28.41,126.74 28.96,127.9 29.56,129.04 C10.7637431,140.17517 -0.530524844,160.614207 0.044524719,182.453634 C0.619574282,204.293062 12.9737988,224.109415 32.33,234.24 C32.5705294,261.940431 51.6712753,285.906111 78.62,292.32 C79.6930938,312.492645 91.8799368,330.400529 110.251656,338.800949 C128.623375,347.201369 150.140269,344.70443 166.1,332.32 L169.67,329.55 L169.67,20.23 L167.38,17.62 C154.639626,3.06383185 134.726538,-2.9741018 116.047549,2.05526536 C97.3685601,7.08463252 83.1792521,22.3047265 79.47,41.29" id="Path" fill="#C9C9C9"></path>
            <path d="M160.44,59.64 L160.44,325.06 C146.143061,336.173463 126.582248,337.648732 110.780169,328.805327 C94.9780899,319.961922 86.0050706,302.518105 88,284.52 C61.696479,282.179578 41.5299972,260.147436 41.52,233.74 C41.52,232.28 41.6,230.74 41.75,229.02 L41.81,228.44 C21.9555682,220.750788 8.96708703,201.536622 9.23220597,180.246902 C9.49732492,158.957183 22.9602486,140.072414 43,132.88 C30.9727627,117.542153 28.7393251,96.690502 37.2452913,79.1533261 C45.7512576,61.6161502 63.5089397,50.4606896 83,50.41 C84.55,50.41 86.14,50.49 87.75,50.64 C87.8752789,33.414146 98.6417018,18.0612756 114.794365,12.0748572 C130.947029,6.08843887 149.118659,10.7164345 160.44,23.7 L160.44,59.64 Z" id="Path" fill="#1C75DB"></path>
            <path d="M18.75,180.87 C18.7440057,162.374603 30.9895614,146.112103 48.7664839,141.007126 C66.5434063,135.902149 85.5517453,143.189506 95.36,158.87 L103.36,153.87 C92.7362795,136.89172 73.1584352,127.703237 53.31,130.38 C45.7202536,122.640056 41.4876221,112.220165 41.53,101.38 C41.5326513,90.3850432 45.9036085,79.8416108 53.68103,72.0698157 C61.4584514,64.2980206 72.0050441,59.9346945 83,59.94 C84.496169,59.9342385 85.9915942,60.0076746 87.48,60.16 L88.81,60.33 C93.0175747,78.4370421 108.750476,91.5389411 127.32,92.4 L127.73,82.91 C113.568656,82.3019927 101.494677,72.450244 98.0576434,58.6988753 C94.6206096,44.9475065 100.639594,30.5735808 112.849573,23.3742928 C125.059553,16.1750049 140.55079,17.8660037 150.92,27.53 L150.92,59.64 L160.44,59.64 L160.44,23.7 C149.110946,10.7432677 130.954949,6.13328766 114.817018,12.115892 C98.6790869,18.0984963 87.9155294,33.4294454 87.77,50.64 C86.16,50.49 84.57,50.41 83.02,50.41 C63.5073553,50.4137874 45.7107042,61.5614533 37.1919008,79.1163189 C28.6730973,96.6711845 30.928585,117.549499 43,132.88 C22.966945,140.089556 9.52045448,158.985255 9.27316203,180.274685 C9.02586957,201.564115 22.0298162,220.767055 41.89,228.44 L41.83,229.02 C41.68,230.7 41.6,232.28 41.6,233.74 C41.6062718,260.119384 61.7281371,282.140684 88,284.52 C86.010574,302.506931 94.9772425,319.938427 110.76702,328.77983 C126.556798,337.621234 146.10448,336.156198 160.4,325.06 L160.4,292.76 L150.88,292.76 L150.88,320.07 C139.882648,326.54397 126.260382,326.632461 115.179852,320.30191 C104.099321,313.971359 97.2577469,302.191425 97.25,289.43 C97.2505745,288.013001 97.3340504,286.597248 97.5,285.19 L97.59,284.46 C110.587095,283.147703 122.585122,276.898134 131.11,267 L123.93,260.78 C112.61845,273.906654 94.3352005,278.611779 78.0923104,272.576158 C61.8494202,266.540536 51.0750377,251.038017 51.08,233.71 C51.08,232.71 51.08,231.84 51.15,231.01 C78.7102292,235.962739 105.109178,217.768266 110.29,190.25 L101,188.53 C97.0537654,209.57847 77.7264203,224.158026 56.4035784,222.171249 C35.0807365,220.184472 18.7796392,202.285199 18.79,180.87" id="Path" fill="#FFFFFF"></path>
            <rect id="Rectangle" fill="#FFFFFF" x="150.92" y="51.12" width="9.53" height="249.42"></rect>
            <rect id="Rectangle" fill="#FFFFFF" x="169.67" y="42.87" width="9.53" height="257.67"></rect>
        </g>
    </g>
</svg>
