<svg xmlns="http://www.w3.org/2000/svg" xmlns:xlink="http://www.w3.org/1999/xlink" xmlns:a="http://ns.adobe.com/AdobeSVGViewerExtensions/3.0/" version="1.1" x="0px" y="0px" viewBox="-20.794 -3 100 100" overflow="visible" enable-background="new -20.794 -3 100 100" xml:space="preserve"><path fill="#FFFFFF" d="M29.206,62.703c8.638,0,15.643-7.002,15.643-15.642V15.642C44.848,7.005,37.843,0,29.206,0  c-8.64,0-15.642,7.005-15.642,15.642v31.419C13.563,55.701,20.565,62.703,29.206,62.703z"></path><path fill="#FFFFFF" d="M52.14,40.702v6.38c0,12.648-10.287,22.935-22.935,22.935c-12.648,0-22.935-10.287-22.935-22.935v-6.38H0  v6.38c0,15.045,11.435,27.465,26.07,29.035v11.612H8.821V94h40.77v-6.271H32.341V76.117c14.635-1.569,26.07-13.989,26.07-29.035  v-6.38H52.14z"></path></svg>